<?xml version="1.0" encoding="iso-8859-1"?>
<!-- Generator: Adobe Illustrator 18.1.1, SVG Export Plug-In . SVG Version: 6.00 Build 0)  -->
<svg version="1.1" id="Capa_1" xmlns="http://www.w3.org/2000/svg" xmlns:xlink="http://www.w3.org/1999/xlink" x="0px" y="0px"
	 viewBox="0 0 612 612" style="enable-background:new 0 0 612 612;" xml:space="preserve">
<g>
	<path d="M588.567,370.312c-29.737-29.739-78.171-30.852-115.17-5.073c-0.39-0.408-0.765-0.824-1.165-1.226L246.795,138.569
		c25.751-36.987,24.602-85.406-5.108-115.135c-33.88-33.878-92.015-30.641-129.875,7.228c-15.208,15.195-24.721,33.7-28.584,52.553
		c-18.876,3.875-37.362,13.381-52.574,28.607c-37.85,37.84-41.087,95.984-7.217,129.863c29.718,29.704,78.142,30.846,115.141,5.097
		l225.433,225.443c0.402,0.4,0.818,0.775,1.228,1.167c-25.783,37.007-24.652,85.429,5.089,115.174
		c33.86,33.87,92.008,30.645,129.863-7.223c15.202-15.199,24.723-33.677,28.588-52.557c18.872-3.871,37.358-13.381,52.565-28.605
		C619.206,462.339,622.425,404.191,588.567,370.312z"/>
</g>
<g>
</g>
<g>
</g>
<g>
</g>
<g>
</g>
<g>
</g>
<g>
</g>
<g>
</g>
<g>
</g>
<g>
</g>
<g>
</g>
<g>
</g>
<g>
</g>
<g>
</g>
<g>
</g>
<g>
</g>
</svg>
